#N canvas 27 35 1920 989 10;
#X obj 133 18 tgl 15 0 empty empty empty 17 7 0 10 #fcfcfc #000000
#000000 0 1;
#X floatatom 880 617 5 0 0 0 - - - 0;
#X obj 880 687 mtof;
#N canvas 0 22 450 278 (subpatch) 0;
#X array melody 16 float 3;
#A 0 50 50 50 48 50 50 53 50 48 45 53 53 0 53 48 48;
#X array reverb 100 float 3;
#A 0 0 0 0 0 0 0 0 0 0 0 0 0 0 0 0 0 0 0 0 0 0 0 0 0 0 0 0 0 0 0 0
0 0 0 0 0 0 0 0 0 0 0 0 0 0 0 0 0 0 0 0 0 0 0 0 0 0 0 0 0 0 0 0 0 0
0 0 0 0 0 0 0 0 0 0 0 0 0 0 0 0 0 0 0 0 0 0 0 0 0 0 0 0 0 0 0 0 0 0
0;
#X coords 0 80 16 40 200 60 1 0 0;
#X restore 1188 -25 graph;
#X obj 133 65 int;
#X obj 201 69 + 1;
#X obj 201 93 % 64;
#X msg 1443 0 \; melody 0 55 55 55 55 57 0 55 55 52 52 53 0 48 0 47
47, f 55;
#X msg 1443 70 \; melody 0 50 50 50 48 50 50 53 50 48 45 53 53 0 53
48 48;
#X obj 1331 143 select 0 1 2 3;
#X msg 1443 105 \; melody 0 50 50 0 50 50 0 50 0 52 52 47 47 50 50
53 53;
#X msg 1443 35 \; melody 0 45 45 50 0 52 0 53 48 48 48 48 48 45 45
48 48;
#X obj 133 41 metro 120;
#X obj 880 769 osc~;
#X obj 208 190 hradio 15 1 0 64 empty empty empty 0 -8 0 10 #fcfcfc
#000000 #000000 0;
#X msg 15 411 55;
#X msg 51 411 55;
#X msg 87 411 55;
#X msg 123 411 55;
#X msg 232 411 55;
#X msg 268 411 55;
#X msg 159 411 57;
#X msg 304 411 52;
#X msg 340 411 52;
#X msg 376 411 53;
#X msg 449 411 48;
#X msg 521 411 47;
#X msg 557 411 47;
#X obj 310 249 select 0 1 2 3 4 5 6 7 8 9 10 11 12 13 14 15 16 17 18
19 20 21 22 23 24 25 26 27 28 29 30 31 32 33 34 35 36 37 38 39 40 41
42 43 44 45 46 47 48 49 50 51 52 53 54 55 56 57 58 59 60 61 62 63,
f 299;
#X msg 598 411 45;
#X msg 634 411 45;
#X msg 670 411 50;
#X msg 742 411 52;
#X msg 815 411 53;
#X msg 851 411 48;
#X msg 887 411 48;
#X msg 923 411 48;
#X msg 959 411 48;
#X msg 1032 411 45;
#X msg 996 411 48;
#X msg 1068 411 45;
#X msg 1104 411 48;
#X msg 1140 411 48;
#X msg 1542 409 53;
#X msg 1181 409 50;
#X msg 1217 409 50;
#X msg 1253 409 50;
#X msg 1289 409 48;
#X msg 1325 409 50;
#X msg 1361 409 50;
#X msg 1398 409 53;
#X msg 1434 409 50;
#X msg 1470 409 48;
#X msg 1506 409 45;
#X msg 1579 409 53;
#X msg 1651 409 53;
#X msg 1687 409 48;
#X msg 1723 409 48;
#X msg 1763 409 50;
#X msg 1799 409 50;
#X msg 1871 409 50;
#X msg 1907 409 50;
#X msg 1980 409 50;
#X msg 2052 409 52;
#X msg 2088 409 52;
#X msg 2124 409 47;
#X msg 2161 409 47;
#X msg 2197 409 50;
#X msg 2233 409 50;
#X msg 2269 409 53;
#X msg 2305 409 53;
#X obj 951 771 osc~;
#X obj 1400 733 line~;
#X obj 1043 860 *~;
#X obj 880 735 * 2;
#X obj 729 768 osc~;
#X obj 729 734 * 6;
#X obj 810 767 osc~;
#X obj 810 733 * 4;
#X obj 635 768 osc~;
#X obj 635 734 * 8;
#X obj 540 770 osc~;
#X obj 540 736 * 10;
#X obj 454 769 osc~;
#X obj 454 735 * 12;
#X obj 453 810 *~ 0.04;
#X obj 800 953 delwrite~ reverb 600;
#X obj 809 808 *~ 0.2;
#X obj 728 808 *~ 0.4;
#X obj 1061 1014 dac~;
#X obj 539 811 *~ 0.6;
#X obj 879 808 *~ 0.5;
#X obj 951 809 *~ 0.4;
#X obj 1007 967 *~ 1;
#X obj 1115 969 *~ 1;
#X obj 635 809 *~ 0.8;
#X msg 1400 681 0.05 \, 0.6 40000;
#X obj 880 647 + 12;
#X obj 1104 860 delread~ reverb 120;
#X obj 1132 920 *~ 0.7;
#X connect 0 0 12 0;
#X connect 1 0 97 0;
#X connect 2 0 71 0;
#X connect 2 0 74 0;
#X connect 2 0 76 0;
#X connect 2 0 78 0;
#X connect 2 0 80 0;
#X connect 2 0 82 0;
#X connect 2 0 84 0;
#X connect 4 0 5 0;
#X connect 5 0 6 0;
#X connect 6 0 4 1;
#X connect 6 0 14 0;
#X connect 9 0 7 0;
#X connect 9 1 11 0;
#X connect 9 2 8 0;
#X connect 9 3 10 0;
#X connect 12 0 4 0;
#X connect 13 0 91 0;
#X connect 14 0 28 0;
#X connect 14 0 96 0;
#X connect 15 0 1 0;
#X connect 16 0 1 0;
#X connect 17 0 1 0;
#X connect 18 0 1 0;
#X connect 19 0 1 0;
#X connect 20 0 1 0;
#X connect 21 0 1 0;
#X connect 22 0 1 0;
#X connect 23 0 1 0;
#X connect 24 0 1 0;
#X connect 25 0 1 0;
#X connect 26 0 1 0;
#X connect 27 0 1 0;
#X connect 28 0 15 0;
#X connect 28 1 16 0;
#X connect 28 2 17 0;
#X connect 28 3 18 0;
#X connect 28 4 21 0;
#X connect 28 6 19 0;
#X connect 28 7 20 0;
#X connect 28 8 22 0;
#X connect 28 9 23 0;
#X connect 28 10 24 0;
#X connect 28 12 25 0;
#X connect 28 14 26 0;
#X connect 28 15 27 0;
#X connect 28 16 29 0;
#X connect 28 17 30 0;
#X connect 28 18 31 0;
#X connect 28 20 32 0;
#X connect 28 22 33 0;
#X connect 28 23 34 0;
#X connect 28 24 35 0;
#X connect 28 25 36 0;
#X connect 28 26 37 0;
#X connect 28 27 39 0;
#X connect 28 28 38 0;
#X connect 28 29 40 0;
#X connect 28 30 41 0;
#X connect 28 31 42 0;
#X connect 28 32 44 0;
#X connect 28 33 45 0;
#X connect 28 34 46 0;
#X connect 28 35 47 0;
#X connect 28 36 48 0;
#X connect 28 37 49 0;
#X connect 28 38 50 0;
#X connect 28 39 51 0;
#X connect 28 40 52 0;
#X connect 28 41 53 0;
#X connect 28 42 43 0;
#X connect 28 43 54 0;
#X connect 28 45 55 0;
#X connect 28 46 56 0;
#X connect 28 47 57 0;
#X connect 28 48 58 0;
#X connect 28 49 59 0;
#X connect 28 51 60 0;
#X connect 28 52 61 0;
#X connect 28 54 62 0;
#X connect 28 56 63 0;
#X connect 28 57 64 0;
#X connect 28 58 65 0;
#X connect 28 59 66 0;
#X connect 28 60 67 0;
#X connect 28 61 68 0;
#X connect 28 62 69 0;
#X connect 28 63 70 0;
#X connect 29 0 1 0;
#X connect 30 0 1 0;
#X connect 31 0 1 0;
#X connect 32 0 1 0;
#X connect 33 0 1 0;
#X connect 34 0 1 0;
#X connect 35 0 1 0;
#X connect 36 0 1 0;
#X connect 37 0 1 0;
#X connect 38 0 1 0;
#X connect 39 0 1 0;
#X connect 40 0 1 0;
#X connect 41 0 1 0;
#X connect 42 0 1 0;
#X connect 43 0 1 0;
#X connect 44 0 1 0;
#X connect 45 0 1 0;
#X connect 46 0 1 0;
#X connect 47 0 1 0;
#X connect 48 0 1 0;
#X connect 49 0 1 0;
#X connect 50 0 1 0;
#X connect 51 0 1 0;
#X connect 52 0 1 0;
#X connect 53 0 1 0;
#X connect 54 0 1 0;
#X connect 55 0 1 0;
#X connect 56 0 1 0;
#X connect 57 0 1 0;
#X connect 58 0 1 0;
#X connect 59 0 1 0;
#X connect 60 0 1 0;
#X connect 61 0 1 0;
#X connect 62 0 1 0;
#X connect 63 0 1 0;
#X connect 64 0 1 0;
#X connect 65 0 1 0;
#X connect 66 0 1 0;
#X connect 67 0 1 0;
#X connect 68 0 1 0;
#X connect 69 0 1 0;
#X connect 70 0 1 0;
#X connect 71 0 92 0;
#X connect 72 0 73 1;
#X connect 73 0 86 0;
#X connect 73 0 93 0;
#X connect 73 0 94 0;
#X connect 74 0 13 0;
#X connect 75 0 88 0;
#X connect 76 0 75 0;
#X connect 77 0 87 0;
#X connect 78 0 77 0;
#X connect 79 0 95 0;
#X connect 80 0 79 0;
#X connect 81 0 90 0;
#X connect 82 0 81 0;
#X connect 83 0 85 0;
#X connect 84 0 83 0;
#X connect 85 0 86 0;
#X connect 85 0 93 0;
#X connect 87 0 73 0;
#X connect 88 0 73 0;
#X connect 90 0 73 0;
#X connect 91 0 73 0;
#X connect 92 0 73 0;
#X connect 93 0 89 0;
#X connect 94 0 89 1;
#X connect 95 0 73 0;
#X connect 96 0 72 0;
#X connect 97 0 2 0;
#X connect 98 0 93 0;
#X connect 98 0 94 0;
#X connect 98 0 99 0;
#X connect 99 0 86 0;
