#N canvas -9 39 1920 966 10;
#X obj 147 66 tgl 15 0 empty empty empty 17 7 0 10 #fcfcfc #000000
#000000 0 1;
#X floatatom 392 305 5 0 0 0 - - - 0;
#X obj 392 372 mtof;
#N canvas 0 22 450 278 (subpatch) 0;
#X array melody 16 float 3;
#A 0 50 50 50 48 50 50 53 50 48 45 53 53 -100 53 48 48;
#X coords 0 80 16 40 200 60 1 0 0;
#X restore 1014 785 graph;
#X floatatom 392 258 5 0 0 0 - - - 0;
#X obj 392 172 int;
#X obj 469 172 + 1;
#X obj 392 234 % 16;
#X obj 325 533 * 1;
#X floatatom 325 565 5 0 0 0 - - - 0;
#X obj 325 596 osc~;
#X obj 381 565 random 100;
#X obj 381 596 / 100;
#X floatatom 381 627 5 0 0 0 - - - 0;
#X obj 325 667 *~;
#X floatatom 495 565 5 0 0 0 - - - 0;
#X obj 495 596 osc~;
#X obj 551 565 random 100;
#X obj 551 596 / 100;
#X floatatom 551 627 5 0 0 0 - - - 0;
#X obj 495 667 *~;
#X floatatom 665 565 5 0 0 0 - - - 0;
#X obj 665 596 osc~;
#X obj 721 565 random 100;
#X obj 721 596 / 100;
#X floatatom 721 627 5 0 0 0 - - - 0;
#X obj 665 667 *~;
#X floatatom 817 565 5 0 0 0 - - - 0;
#X obj 817 596 osc~;
#X obj 891 565 random 100;
#X obj 891 596 / 100;
#X floatatom 891 627 5 0 0 0 - - - 0;
#X obj 817 667 *~;
#X floatatom 1005 565 5 0 0 0 - - - 0;
#X obj 1005 596 osc~;
#X obj 1089 570 random 100;
#X obj 1089 601 / 100;
#X floatatom 1089 632 5 0 0 0 - - - 0;
#X obj 1005 667 *~;
#X obj 495 533 * 2;
#X obj 665 533 * 3;
#X obj 817 533 * 4;
#X obj 1005 533 * 5;
#X obj 661 892 dac~;
#X floatatom 392 420 5 0 0 0 - - - 0;
#X msg 821 421 bang;
#X msg 690 265 \; melody 0 45 45 50 -100 52 -100 53 48 48 48 48 48
45 45 48 48;
#X msg 690 300 \; melody 0 50 50 50 48 50 50 53 50 48 45 53 53 -100
53 48 48;
#X msg 690 335 \; melody 0 50 50 -100 50 50 -100 50 -100 52 52 47 47
50 50 53 53, f 64;
#X msg 690 228 \; melody 0 55 55 55 55 57 -100 55 55 52 52 53 -100
48 -100 47 47, f 63;
#X obj 1273 509 noise~;
#X floatatom 1287 550 5 0 0 0 - - - 0;
#X obj 702 682 tgl 15 0 empty empty empty 17 7 0 10 #fcfcfc #000000
#000000 0 1;
#X obj 1274 733 dac~;
#X obj 1292 660 tgl 15 0 empty empty empty 17 7 0 10 #fcfcfc #000000
#000000 0 1;
#X obj 1371 326 *~;
#X obj 1372 424 dac~;
#X floatatom 1465 285 5 0 0 0 - - - 0;
#X obj 1488 259 line;
#X obj 1004 627 clip~ 0 1;
#X obj 1371 362 *~ 1;
#X obj 1611 403 *~;
#X obj 1612 501 dac~;
#X floatatom 1705 362 5 0 0 0 - - - 0;
#X obj 1728 336 line;
#X obj 1611 439 *~ 1;
#X obj 1504 338 phasor~ 698.46;
#X obj 1405 335 tgl 15 0 empty empty empty 17 7 0 10 #fcfcfc #000000
#000000 0 1;
#X obj 1371 263 osc~ 261.6;
#X msg 418 136 0;
#X floatatom 323 216 5 0 0 0 - - - 0;
#X obj 643 821 *~;
#X obj 774 790 / 100;
#X obj 683 822 *~;
#X obj 501 375 select 0 1 2 3 4 5 6 7;
#X obj 501 236 % 128;
#X obj 501 292 / 16;
#X obj 527 791 / 100;
#X obj 1488 167 sel 0;
#X obj 1793 423 / 100;
#X obj 1390 390 *~ 0.8;
#X floatatom 152 567 5 0 0 0 - - - 0;
#X obj 152 598 osc~;
#X obj 208 567 random 100;
#X obj 208 598 / 100;
#X floatatom 208 650 5 0 0 0 - - - 0;
#X obj 152 669 *~;
#X obj 152 535 * 0.5;
#X obj 208 623 + 0.3;
#X msg 1488 217 0.5 \, 0 170;
#N canvas 0 22 450 278 (subpatch) 0;
#X array side 16 float 3;
#A 0 48 48 55 55 53 52 50 48 47 55 55 53 52 45 48 48;
#X coords 0 80 16 40 200 60 1 0 0;
#X restore 1480 699 graph;
#X msg 1481 796 \; side 0 48 48 55 55 53 52 50 48 47 55 55 53 52 45
48 48, f 64;
#X obj 392 103 metro 120;
#X floatatom 98 335 5 0 0 0 - - - 0;
#X obj 98 402 mtof;
#X floatatom 97 269 5 0 0 0 - - - 0;
#X obj 97 245 % 16;
#X floatatom 98 450 5 0 0 0 - - - 0;
#X obj 98 311 tabread side;
#X obj 66 219 / 2;
#X obj 392 281 tabread melody;
#X obj 98 486 osc~;
#X obj 392 328 + 36;
#X obj 1186 248 *~;
#X obj 1187 346 dac~;
#X floatatom 1280 207 5 0 0 0 - - - 0;
#X obj 1303 181 line;
#X obj 1186 284 *~ 1;
#X obj 1220 257 tgl 15 0 empty empty empty 17 7 0 10 #fcfcfc #000000
#000000 0 1;
#X obj 1105 185 osc~ 392;
#X obj 1186 185 osc~ 261.6;
#X obj 1142 319 *~ 0.8;
#X obj 1290 263 osc~ 493.86;
#X obj 1375 87 % 4;
#X obj 1303 107 sel 2;
#X floatatom 501 263 5 0 0 0 - - - 0;
#X obj 1273 9 % 64;
#X obj 1347 30 sel 56 58 60 61 62;
#X obj 527 734 random 50;
#X obj 774 733 random 50;
#X obj 527 760 + 50;
#X obj 774 759 + 40;
#X msg 1303 139 0.5 \, 0 370;
#X floatatom 587 805 5 0 0 0 - - - 0;
#X floatatom 725 807 5 0 0 0 - - - 0;
#X msg 1728 250 0.2 \, 1 170;
#X obj 533 208 * 16;
#X floatatom 533 135 5 0 0 0 - - - 0;
#X obj 119 536 tgl 15 1 empty empty empty 17 7 0 10 #fcfcfc #000000
#000000 1 1;
#X obj 665 725 *~ 1;
#X obj 98 361 + 36;
#X obj 77 830 dac~;
#X obj 44 761 *~;
#X obj 97 761 *~;
#X obj 144 711 * -1;
#X floatatom 147 766 5 0 0 0 - - - 0;
#X obj 144 732 + 1;
#X obj 1793 366 random 20;
#X obj 1793 394 + 30;
#X obj 1560 475 *~ 0.4;
#X obj 1611 340 phasor~ 1045.5;
#X obj 93 574 *~, f 7;
#X obj 684 857 lop~ 500;
#X obj 602 857 lop~ 2000;
#X obj 436 768 + 500;
#X obj 882 781 + 500;
#X obj 97 645 *~ 0.5;
#X obj 30 263 % 32;
#X obj 51 650 / 25;
#X obj 1275 693 *~ 0.8;
#X obj 1274 626 bp~ 0 8;
#X obj 436 737 random 1000;
#X obj 882 750 random 1500;
#X connect 0 0 92 0;
#X connect 1 0 102 0;
#X connect 2 0 44 0;
#X connect 4 0 100 0;
#X connect 5 0 6 0;
#X connect 5 0 70 0;
#X connect 6 0 5 1;
#X connect 6 0 125 0;
#X connect 6 0 45 0;
#X connect 6 0 99 0;
#X connect 6 0 113 0;
#X connect 6 0 75 0;
#X connect 6 0 7 0;
#X connect 7 0 4 0;
#X connect 8 0 9 0;
#X connect 9 0 10 0;
#X connect 10 0 14 0;
#X connect 11 0 12 0;
#X connect 12 0 13 0;
#X connect 13 0 14 1;
#X connect 14 0 129 0;
#X connect 15 0 16 0;
#X connect 16 0 20 0;
#X connect 17 0 18 0;
#X connect 18 0 19 0;
#X connect 19 0 20 1;
#X connect 20 0 129 0;
#X connect 21 0 22 0;
#X connect 22 0 26 0;
#X connect 23 0 24 0;
#X connect 24 0 25 0;
#X connect 25 0 26 1;
#X connect 26 0 129 0;
#X connect 27 0 28 0;
#X connect 28 0 32 0;
#X connect 29 0 30 0;
#X connect 30 0 31 0;
#X connect 31 0 32 1;
#X connect 32 0 129 0;
#X connect 33 0 34 0;
#X connect 34 0 59 0;
#X connect 35 0 36 0;
#X connect 36 0 37 0;
#X connect 36 0 59 2;
#X connect 37 0 38 1;
#X connect 38 0 129 0;
#X connect 39 0 15 0;
#X connect 40 0 21 0;
#X connect 41 0 27 0;
#X connect 42 0 33 0;
#X connect 44 0 8 0;
#X connect 44 0 39 0;
#X connect 44 0 40 0;
#X connect 44 0 41 0;
#X connect 44 0 42 0;
#X connect 44 0 51 0;
#X connect 44 0 87 0;
#X connect 45 0 35 0;
#X connect 45 0 29 0;
#X connect 45 0 23 0;
#X connect 45 0 17 0;
#X connect 45 0 11 0;
#X connect 45 0 83 0;
#X connect 45 0 118 0;
#X connect 45 0 119 0;
#X connect 45 0 137 0;
#X connect 45 0 151 0;
#X connect 45 0 152 0;
#X connect 50 0 150 0;
#X connect 51 0 150 1;
#X connect 52 0 129 1;
#X connect 54 0 149 1;
#X connect 55 0 60 0;
#X connect 57 0 55 1;
#X connect 58 0 57 0;
#X connect 59 0 38 0;
#X connect 60 0 56 0;
#X connect 60 0 80 0;
#X connect 61 0 65 0;
#X connect 63 0 61 1;
#X connect 64 0 63 0;
#X connect 65 0 62 1;
#X connect 65 0 139 0;
#X connect 66 0 61 0;
#X connect 67 0 60 1;
#X connect 68 0 55 0;
#X connect 69 0 5 1;
#X connect 71 0 143 0;
#X connect 72 0 124 0;
#X connect 73 0 142 0;
#X connect 74 0 49 0;
#X connect 74 1 46 0;
#X connect 74 2 47 0;
#X connect 74 3 48 0;
#X connect 74 4 49 0;
#X connect 74 5 49 0;
#X connect 74 6 47 0;
#X connect 74 7 48 0;
#X connect 75 0 115 0;
#X connect 76 0 74 0;
#X connect 77 0 123 0;
#X connect 78 0 89 0;
#X connect 79 0 65 1;
#X connect 80 0 56 1;
#X connect 81 0 82 0;
#X connect 82 0 86 0;
#X connect 83 0 84 0;
#X connect 84 0 88 0;
#X connect 85 0 86 1;
#X connect 86 0 129 0;
#X connect 87 0 81 0;
#X connect 88 0 85 0;
#X connect 89 0 58 0;
#X connect 92 0 5 0;
#X connect 93 0 130 0;
#X connect 94 0 97 0;
#X connect 95 0 98 0;
#X connect 96 0 95 0;
#X connect 97 0 101 0;
#X connect 98 0 93 0;
#X connect 99 0 96 0;
#X connect 99 0 147 0;
#X connect 100 0 1 0;
#X connect 101 0 141 0;
#X connect 102 0 2 0;
#X connect 103 0 107 0;
#X connect 105 0 103 1;
#X connect 106 0 105 0;
#X connect 107 0 111 0;
#X connect 107 0 104 1;
#X connect 108 0 107 1;
#X connect 109 0 103 0;
#X connect 110 0 103 0;
#X connect 111 0 104 0;
#X connect 112 0 55 0;
#X connect 113 0 78 0;
#X connect 113 0 114 0;
#X connect 114 0 122 0;
#X connect 115 0 76 0;
#X connect 115 0 116 0;
#X connect 116 0 117 0;
#X connect 117 0 122 0;
#X connect 117 1 89 0;
#X connect 117 2 122 0;
#X connect 117 3 89 0;
#X connect 117 3 122 0;
#X connect 117 4 89 0;
#X connect 118 0 120 0;
#X connect 119 0 121 0;
#X connect 120 0 77 0;
#X connect 121 0 72 0;
#X connect 122 0 106 0;
#X connect 123 0 71 1;
#X connect 124 0 73 1;
#X connect 125 0 64 0;
#X connect 126 0 75 1;
#X connect 127 0 126 0;
#X connect 128 0 141 1;
#X connect 129 0 71 0;
#X connect 129 0 73 0;
#X connect 130 0 94 0;
#X connect 132 0 131 0;
#X connect 133 0 131 1;
#X connect 134 0 136 0;
#X connect 135 0 133 1;
#X connect 136 0 135 0;
#X connect 137 0 138 0;
#X connect 138 0 79 0;
#X connect 139 0 62 0;
#X connect 140 0 61 0;
#X connect 141 0 146 0;
#X connect 142 0 43 1;
#X connect 143 0 43 0;
#X connect 144 0 143 1;
#X connect 145 0 142 1;
#X connect 146 0 133 0;
#X connect 146 0 132 0;
#X connect 147 0 148 0;
#X connect 148 0 132 1;
#X connect 148 0 134 0;
#X connect 149 0 129 0;
#X connect 149 0 53 0;
#X connect 149 0 53 1;
#X connect 150 0 149 0;
#X connect 151 0 144 0;
#X connect 152 0 145 0;
