#N canvas 249 0 1579 958 12;
#X obj 581 513 mtof;
#X obj 581 842 dac~;
#X obj 619 611 osc~;
#X obj 613 578 *~ 2;
#X obj 748 829 line~;
#X obj 758 737 bng 15 250 50 0 empty empty empty 17 7 0 10 #fcfcfc
#000000 #000000;
#X obj 704 634 osc~;
#X obj 781 626 osc~;
#X obj 575 746 *~;
#X obj 581 781 *~;
#X obj 498 600 osc~;
#X obj 776 569 *~ 4;
#X obj 700 577 *~ 3;
#X msg 760 780 1 \, 0.3 500;
#X obj 191 274 select 0 4 6 8 10 12 14 16 18 20 22 23 26 28 30 32 35
36 38 39 40 41 42 46 48 51 52 54 55 56 58 60 62, f 135;
#X obj 106 179 int;
#X obj 174 183 + 1;
#X obj 174 207 % 64;
#X obj 93 92 tgl 15 0 empty empty empty 17 7 0 10 #fcfcfc #000000 #000000
0 1;
#X obj 110 132 metro 120;
#X msg 11 355 67;
#X msg 51 354 68;
#X msg 85 352 67;
#X msg 119 354 63;
#X msg 154 355 65;
#X msg 192 350 60;
#X msg 231 350 58;
#X msg 266 352 57;
#X msg 311 351 60;
#X msg 353 350 62;
#X msg 394 346 63;
#X msg 485 348 63;
#X msg 438 345 54;
#X msg 532 350 62;
#X msg 568 352 57;
#X msg 612 351 58;
#X msg 660 354 58;
#X msg 712 353 58;
#X msg 754 350 60;
#X msg 790 352 58;
#X msg 836 350 57;
#X msg 876 349 54;
#X msg 923 348 62;
#X msg 961 347 57;
#X msg 1003 346 58;
#X msg 1046 349 58;
#X msg 1089 349 58;
#X msg 1129 356 60;
#X msg 1176 354 58;
#X msg 1226 353 57;
#X msg 1270 351 58;
#X msg 1313 348 62;
#X msg 1356 347 65;
#X obj 66 704 phasor~;
#X obj 95 647 mtof;
#X msg 17 612 43;
#X msg 141 604 50;
#X obj 155 806 line~;
#X obj 156 698 bng 15 250 50 0 empty empty empty 17 7 0 10 #fcfcfc
#000000 #000000;
#X msg 128 741 1 \, 0 200;
#X obj 68 776 *~;
#X obj 70 868 dac~;
#X msg 83 596 42;
#X obj 148 470 % 4;
#X obj 55 433 % 32;
#X obj 18 518 select 0 4 8 12 16 20 24 28;
#X obj 154 572 select 2;
#X obj 330 808 line~;
#X obj 331 700 bng 15 250 50 0 empty empty empty 17 7 0 10 #fcfcfc
#000000 #000000;
#X msg 333 743 1 \, 0 200;
#X obj 208 636 mtof;
#X obj 202 703 phasor~;
#X obj 218 777 *~;
#X obj 229 898 dac~;
#X obj 216 743 *~ 0.2;
#X obj 92 821 *~ 0.5;
#X obj 216 821 *~ 0.5;
#X obj 402 757 noise~;
#X obj 359 869 *~, f 4;
#X obj 486 831 line~;
#X msg 488 798 0.4 \, 0 100;
#X obj 66 742 *~ 0.3;
#X obj 395 786 hip~ 2000;
#X obj 387 820 lop~ 4000;
#X obj 695 682 *~ 0.2;
#X obj 617 662 *~ 0.4;
#X obj 520 667 *~ 0.6;
#X obj 779 677 *~ 0.1;
#X connect 0 0 10 0;
#X connect 0 0 11 0;
#X connect 0 0 5 0;
#X connect 0 0 3 0;
#X connect 0 0 12 0;
#X connect 2 0 85 0;
#X connect 3 0 2 0;
#X connect 4 0 9 1;
#X connect 5 0 13 0;
#X connect 6 0 84 0;
#X connect 7 0 87 0;
#X connect 8 0 9 0;
#X connect 9 0 1 0;
#X connect 9 0 1 1;
#X connect 10 0 86 0;
#X connect 11 0 7 0;
#X connect 12 0 6 0;
#X connect 13 0 4 0;
#X connect 14 0 20 0;
#X connect 14 1 21 0;
#X connect 14 2 22 0;
#X connect 14 3 23 0;
#X connect 14 4 24 0;
#X connect 14 5 25 0;
#X connect 14 6 26 0;
#X connect 14 7 27 0;
#X connect 14 8 28 0;
#X connect 14 9 29 0;
#X connect 14 10 30 0;
#X connect 14 11 32 0;
#X connect 14 12 31 0;
#X connect 14 13 33 0;
#X connect 14 14 34 0;
#X connect 14 15 35 0;
#X connect 14 16 36 0;
#X connect 14 17 37 0;
#X connect 14 18 38 0;
#X connect 14 19 39 0;
#X connect 14 20 40 0;
#X connect 14 21 41 0;
#X connect 14 22 42 0;
#X connect 14 23 43 0;
#X connect 14 24 44 0;
#X connect 14 25 45 0;
#X connect 14 26 46 0;
#X connect 14 27 47 0;
#X connect 14 28 48 0;
#X connect 14 29 49 0;
#X connect 14 30 50 0;
#X connect 14 31 51 0;
#X connect 14 32 52 0;
#X connect 15 0 16 0;
#X connect 16 0 17 0;
#X connect 16 0 63 0;
#X connect 16 0 64 0;
#X connect 17 0 15 1;
#X connect 17 0 14 0;
#X connect 18 0 19 0;
#X connect 19 0 15 0;
#X connect 20 0 0 0;
#X connect 21 0 0 0;
#X connect 22 0 0 0;
#X connect 23 0 0 0;
#X connect 24 0 0 0;
#X connect 25 0 0 0;
#X connect 26 0 0 0;
#X connect 27 0 0 0;
#X connect 28 0 0 0;
#X connect 29 0 0 0;
#X connect 30 0 0 0;
#X connect 31 0 0 0;
#X connect 32 0 0 0;
#X connect 33 0 0 0;
#X connect 34 0 0 0;
#X connect 35 0 0 0;
#X connect 36 0 0 0;
#X connect 37 0 0 0;
#X connect 38 0 0 0;
#X connect 39 0 0 0;
#X connect 40 0 0 0;
#X connect 41 0 0 0;
#X connect 42 0 0 0;
#X connect 43 0 0 0;
#X connect 44 0 0 0;
#X connect 45 0 0 0;
#X connect 46 0 0 0;
#X connect 47 0 0 0;
#X connect 48 0 0 0;
#X connect 49 0 0 0;
#X connect 50 0 0 0;
#X connect 51 0 0 0;
#X connect 52 0 0 0;
#X connect 53 0 81 0;
#X connect 54 0 53 0;
#X connect 54 0 58 0;
#X connect 55 0 54 0;
#X connect 56 0 70 0;
#X connect 57 0 60 1;
#X connect 58 0 59 0;
#X connect 59 0 57 0;
#X connect 60 0 61 0;
#X connect 60 0 75 0;
#X connect 62 0 54 0;
#X connect 63 0 66 0;
#X connect 64 0 65 0;
#X connect 65 0 55 0;
#X connect 65 1 55 0;
#X connect 65 2 55 0;
#X connect 65 3 55 0;
#X connect 65 4 62 0;
#X connect 65 5 62 0;
#X connect 65 6 62 0;
#X connect 65 7 62 0;
#X connect 66 0 56 0;
#X connect 67 0 72 1;
#X connect 68 0 69 0;
#X connect 68 0 80 0;
#X connect 69 0 67 0;
#X connect 70 0 68 0;
#X connect 70 0 71 0;
#X connect 71 0 74 0;
#X connect 72 0 73 1;
#X connect 72 0 76 0;
#X connect 74 0 72 0;
#X connect 75 0 61 1;
#X connect 76 0 73 0;
#X connect 77 0 82 0;
#X connect 78 0 73 1;
#X connect 78 0 76 0;
#X connect 79 0 78 1;
#X connect 80 0 79 0;
#X connect 81 0 60 0;
#X connect 82 0 83 0;
#X connect 83 0 78 0;
#X connect 84 0 8 0;
#X connect 85 0 8 0;
#X connect 86 0 8 1;
#X connect 87 0 8 0;
