#N canvas 0 25 1440 777 12;
#X obj 48 10 tgl 15 0 empty empty empty 17 7 0 10 #fcfcfc #000000 #000000
0 1;
#X floatatom 950 102 5 0 0 0 - - - 0;
#X obj 950 123 mtof;
#N canvas 0 22 450 278 (subpatch) 0;
#X array melody 16 float 3;
#A 0 45 45 50 -100 52 -100 53 48 48 48 48 48 45 45 48 48;
#X coords 0 80 16 40 200 60 1 0 0;
#X restore 1469 42 graph;
#X obj 950 77 tabread melody;
#X floatatom 950 53 5 0 0 0 - - - 0;
#X obj 47 91 int;
#X obj 337 38 + 1;
#X obj 147 109 % 64;
#X obj 949 21 % 16;
#X text 352 368 Original Melody;
#X obj 709 120 select 0 1 2 3 4 5 6, f 21;
#X obj 341 389 bng 15 250 50 0 empty empty empty 17 7 0 10 #fcfcfc
#000000 #000000;
#X msg 209 231 \; melody 0 45 45 50 -100 52 -100 53 48 48 48 48 48
45 45 48 48;
#X msg 208 279 \; melody 0 50 50 50 48 50 50 53 50 48 45 53 53 -100
53 48 48;
#X msg 206 324 \; melody 0 50 50 -100 50 50 -100 50 -100 52 52 47 47
50 50 53 53, f 64;
#X msg 207 183 \; melody 0 55 55 55 55 57 -100 55 55 52 52 53 -100
48 -100 47 47, f 63;
#X floatatom 150 48 5 0 0 0 - - - 0;
#X floatatom 46 159 5 0 0 0 - - - 0;
#X obj 400 69 / 16;
#X obj 214 128 select 0 1 2 3 4 5 6 7, f 64;
#X floatatom 949 147 5 0 0 0 - - - 0;
#X obj 1240 162 bng 15 250 50 0 empty empty empty 17 7 0 10 #fcfcfc
#000000 #000000;
#X obj 707 301 * 0.5;
#X obj 856 302 * 1.5;
#X obj 1008 303 * 2.5;
#X obj 1152 300 * 3.5;
#X obj 1312 303 * 4.5;
#X obj 1477 304 * 5.5;
#X floatatom 706 350 5 0 0 0 - - - 0;
#X floatatom 856 348 5 0 0 0 - - - 0;
#X floatatom 1002 349 5 0 0 0 - - - 0;
#X floatatom 1151 348 5 0 0 0 - - - 0;
#X floatatom 1315 353 5 0 0 0 - - - 0;
#X floatatom 1476 355 5 0 0 0 - - - 0;
#X obj 759 348 random 210;
#X obj 912 349 random 210;
#X obj 1060 349 random 210;
#X obj 1217 349 random 210;
#X obj 1377 353 random 210;
#X obj 1534 353 random 210;
#X obj 705 392 osc~;
#X obj 855 390 osc~;
#X obj 1003 391 osc~;
#X obj 1148 391 osc~;
#X obj 1315 396 osc~;
#X obj 1475 397 osc~;
#X obj 706 436 *~;
#X obj 856 435 *~;
#X obj 1003 436 *~;
#X obj 1148 436 *~;
#X obj 1315 440 *~;
#X obj 1474 442 *~;
#X floatatom 766 435 5 0 0 0 - - - 0;
#X floatatom 918 434 5 0 0 0 - - - 0;
#X floatatom 1064 436 5 0 0 0 - - - 0;
#X floatatom 1221 436 5 0 0 0 - - - 0;
#X floatatom 1380 438 5 0 0 0 - - - 0;
#X floatatom 1532 443 5 0 0 0 - - - 0;
#X obj 765 392 / 210;
#X obj 915 393 / 210;
#X obj 1065 392 / 210;
#X obj 1217 391 / 210;
#X obj 1379 395 / 210;
#X obj 1535 398 / 210;
#X obj 1597 547 *~ 1;
#X obj 1629 471 tgl 15 0 empty empty empty 17 7 0 10 #fcfcfc #000000
#000000 0 1;
#X obj 1153 874 *~;
#X obj 1258 873 *~;
#X obj 1354 876 *~;
#X obj 1470 873 *~;
#X obj 1587 875 *~;
#X obj 332 490 random 307;
#X obj 349 539 / 307;
#X obj 443 489 random 156;
#X obj 549 489 random 715;
#X obj 652 489 random 102;
#X obj 760 488 random 255;
#X obj 457 537 / 156;
#X obj 557 538 / 715;
#X obj 668 534 / 102;
#X obj 774 534 / 255;
#X floatatom 350 584 5 0 0 0 - - - 0;
#X floatatom 458 583 5 0 0 0 - - - 0;
#X floatatom 556 584 5 0 0 0 - - - 0;
#X floatatom 668 583 5 0 0 0 - - - 0;
#X floatatom 774 581 5 0 0 0 - - - 0;
#X obj 1473 905 lop~ 1500;
#X obj 1561 906 lop~ 1500;
#X obj 1250 911 lop~ 1500;
#X floatatom 62 353 5 0 0 0 - - - 0;
#X obj 62 374 mtof;
#X obj 62 328 tabread melody;
#X floatatom 62 304 5 0 0 0 - - - 0;
#X obj 62 276 % 16;
#X obj 62 467 dac~;
#X obj 1383 1026 dac~;
#X text 63 499 Main;
#X obj 238 447 sel 0;
#X obj 196 388 % 4, f 4;
#X obj 45 621 bng 15 250 50 0 empty sn empty 17 7 0 10 #fcfcfc #000000
#000000;
#X obj 45 709 line~;
#X obj 43 765 *~;
#X obj 44 538 % 16;
#X obj 45 578 sel 0 8, f 17;
#X obj 42 965 dac~;
#X obj 64 433 *~ 0.25;
#X obj 1386 975 *~ 0.05;
#X obj 104 620 bng 15 250 50 0 empty sn empty 17 7 0 10 #fcfcfc #000000
#000000;
#X obj 243 792 line~;
#X obj 177 828 *~;
#X obj 182 935 dac~;
#X obj 1144 911 lop~ 500;
#X obj 1362 907 lop~ 500;
#X obj 178 876 *~ 0.05;
#X obj 177 756 osc~ 400;
#X msg 264 757 1 \, 0 1600;
#X obj 62 403 osc~;
#X obj 48 46 metro 240;
#X obj 180 646 *~;
#X obj 199 586 osc~;
#X obj 42 896 *~ 0.5;
#X obj 199 543 *~ 0.5;
#X msg 45 662 1 \, 0 1500;
#X obj 230 646 osc~ 200;
#X obj 199 496 osc~ 400;
#X obj 627 872 *~;
#X obj 732 871 *~;
#X obj 828 874 *~;
#X obj 944 871 *~;
#X obj 1061 873 *~;
#X obj 947 903 lop~ 1500;
#X obj 1035 904 lop~ 1500;
#X obj 724 909 lop~ 1500;
#X obj 857 1024 dac~;
#X obj 618 909 lop~ 500;
#X obj 836 905 lop~ 500;
#X obj 860 973 *~ 0.2;
#X connect 0 0 118 0;
#X connect 1 0 2 0;
#X connect 2 0 21 0;
#X connect 4 0 1 0;
#X connect 5 0 4 0;
#X connect 6 0 7 0;
#X connect 6 0 18 0;
#X connect 7 0 12 0;
#X connect 7 0 6 1;
#X connect 7 0 8 0;
#X connect 7 0 22 0;
#X connect 8 0 6 1;
#X connect 8 0 9 0;
#X connect 8 0 19 0;
#X connect 8 0 94 0;
#X connect 9 0 5 0;
#X connect 12 0 72 0;
#X connect 12 0 74 0;
#X connect 12 0 75 0;
#X connect 12 0 76 0;
#X connect 12 0 77 0;
#X connect 17 0 6 1;
#X connect 18 0 99 0;
#X connect 18 0 103 0;
#X connect 19 0 20 0;
#X connect 19 0 11 0;
#X connect 20 0 16 0;
#X connect 20 1 13 0;
#X connect 20 2 14 0;
#X connect 20 3 15 0;
#X connect 20 4 16 0;
#X connect 20 5 13 0;
#X connect 20 6 16 0;
#X connect 20 7 15 0;
#X connect 21 0 23 0;
#X connect 21 0 24 0;
#X connect 21 0 25 0;
#X connect 21 0 26 0;
#X connect 21 0 27 0;
#X connect 21 0 28 0;
#X connect 22 0 35 0;
#X connect 22 0 36 0;
#X connect 22 0 37 0;
#X connect 22 0 38 0;
#X connect 22 0 39 0;
#X connect 22 0 40 0;
#X connect 23 0 29 0;
#X connect 24 0 30 0;
#X connect 25 0 31 0;
#X connect 26 0 32 0;
#X connect 27 0 33 0;
#X connect 28 0 34 0;
#X connect 29 0 41 0;
#X connect 30 0 42 0;
#X connect 31 0 43 0;
#X connect 32 0 44 0;
#X connect 33 0 45 0;
#X connect 34 0 46 0;
#X connect 35 0 59 0;
#X connect 36 0 60 0;
#X connect 37 0 61 0;
#X connect 38 0 62 0;
#X connect 39 0 63 0;
#X connect 40 0 64 0;
#X connect 41 0 47 0;
#X connect 42 0 48 0;
#X connect 43 0 49 0;
#X connect 44 0 50 0;
#X connect 45 0 51 0;
#X connect 46 0 52 0;
#X connect 47 0 65 0;
#X connect 48 0 65 0;
#X connect 49 0 65 0;
#X connect 50 0 65 0;
#X connect 51 0 65 0;
#X connect 52 0 65 0;
#X connect 53 0 47 1;
#X connect 54 0 48 1;
#X connect 55 0 49 1;
#X connect 56 0 50 1;
#X connect 57 0 51 1;
#X connect 58 0 52 1;
#X connect 59 0 53 0;
#X connect 60 0 54 0;
#X connect 61 0 55 0;
#X connect 62 0 56 0;
#X connect 63 0 57 0;
#X connect 64 0 58 0;
#X connect 65 0 67 0;
#X connect 65 0 68 0;
#X connect 65 0 69 0;
#X connect 65 0 70 0;
#X connect 65 0 71 0;
#X connect 65 0 126 0;
#X connect 65 0 127 0;
#X connect 65 0 128 0;
#X connect 65 0 129 0;
#X connect 65 0 130 0;
#X connect 66 0 65 1;
#X connect 67 0 112 0;
#X connect 68 0 89 0;
#X connect 69 0 113 0;
#X connect 70 0 87 0;
#X connect 71 0 88 0;
#X connect 72 0 73 0;
#X connect 73 0 82 0;
#X connect 74 0 78 0;
#X connect 75 0 79 0;
#X connect 76 0 80 0;
#X connect 77 0 81 0;
#X connect 78 0 83 0;
#X connect 79 0 84 0;
#X connect 80 0 85 0;
#X connect 81 0 86 0;
#X connect 82 0 67 1;
#X connect 82 0 130 1;
#X connect 83 0 68 1;
#X connect 83 0 129 1;
#X connect 84 0 69 1;
#X connect 84 0 128 1;
#X connect 85 0 70 1;
#X connect 85 0 127 1;
#X connect 86 0 71 1;
#X connect 86 0 126 1;
#X connect 87 0 107 0;
#X connect 88 0 107 0;
#X connect 89 0 107 0;
#X connect 90 0 91 0;
#X connect 91 0 117 0;
#X connect 92 0 90 0;
#X connect 93 0 92 0;
#X connect 94 0 93 0;
#X connect 99 0 98 0;
#X connect 100 0 123 0;
#X connect 101 0 102 1;
#X connect 102 0 121 0;
#X connect 103 0 104 0;
#X connect 104 0 100 0;
#X connect 104 1 108 0;
#X connect 106 0 95 0;
#X connect 106 0 95 1;
#X connect 107 0 96 0;
#X connect 107 0 96 1;
#X connect 108 0 116 0;
#X connect 109 0 110 1;
#X connect 110 0 114 0;
#X connect 112 0 107 0;
#X connect 113 0 107 0;
#X connect 114 0 111 0;
#X connect 114 0 111 1;
#X connect 115 0 110 0;
#X connect 116 0 109 0;
#X connect 117 0 106 0;
#X connect 118 0 6 0;
#X connect 119 0 102 0;
#X connect 120 0 119 1;
#X connect 121 0 105 0;
#X connect 122 0 120 0;
#X connect 123 0 101 0;
#X connect 124 0 102 0;
#X connect 125 0 122 0;
#X connect 126 0 135 0;
#X connect 127 0 133 0;
#X connect 128 0 136 0;
#X connect 129 0 131 0;
#X connect 130 0 132 0;
#X connect 131 0 137 0;
#X connect 132 0 137 0;
#X connect 133 0 137 0;
#X connect 135 0 137 0;
#X connect 136 0 137 0;
#X connect 137 0 134 0;
#X connect 137 0 134 1;
