#N canvas 634 300 460 351 12;
#X obj 128 57 tgl 15 0 empty empty empty 17 7 0 10 #fcfcfc #000000
#000000 0 1;
#N canvas 426 67 1341 638 melody 0;
#X floatatom 261 277 5 0 0 0 - - - 0;
#X obj 262 307 mtof;
#N canvas 0 22 450 278 (subpatch) 0;
#X array melody 16 float 3;
#A 0 55 55 55 55 57 0 55 55 52 52 53 0 48 0 47 47;
#X coords 0 80 16 40 200 60 1 0 0;
#X restore 612 59 graph;
#X obj 179 253 tabread melody;
#X floatatom 261 228 4 0 0 0 - - - 0;
#X obj 261 142 int;
#X obj 329 135 + 1;
#X obj 329 160 % 64;
#X msg 500 205 \; melody 0 55 55 55 55 57 0 55 55 52 52 53 0 48 0 47
47, f 55;
#X obj 388 343 select 0 1 2 3;
#X obj 388 199 / 16;
#X obj 261 200 % 16;
#X msg 500 331 \; melody 0 50 50 0 50 50 0 50 0 52 52 47 47 50 50 53
53;
#X msg 500 246 \; melody 0 45 45 50 0 52 0 53 48 48 48 48 48 45 45
48 48;
#X obj 261 118 metro 120;
#N canvas 731 739 982 451 adsr 0;
#X obj 266 176 line~;
#X obj 267 29 bng 15 250 50 0 empty empty empty 17 7 0 10 #fcfcfc #000000
#000000;
#X obj 267 96 int;
#X msg 267 147 1 \$1;
#X obj 300 96 delay;
#X obj 346 123 pack;
#X obj 344 60 bng 15 250 50 0 empty empty empty 17 7 0 10 #fcfcfc #000000
#000000;
#X obj 346 96 int;
#X msg 334 150 \$2 \$1;
#X obj 463 103 int;
#X obj 464 27 bng 15 250 50 0 empty empty empty 17 7 0 10 #fcfcfc #000000
#000000;
#X msg 462 147 0 \$1;
#X obj 267 4 inlet;
#X obj 462 4 inlet;
#X obj 265 203 outlet~;
#X text 114 106 att;
#X text 184 103 dec;
#X text 113 150 sus;
#X text 181 149 rel;
#X floatatom 112 125 5 0 0 0 - - - 0;
#X floatatom 177 125 5 0 0 0 - - - 0;
#X floatatom 112 172 5 0 0 0 - - - 0;
#X floatatom 177 172 5 0 0 0 - - - 0;
#X obj 45 11 inlet;
#X obj 57 40 unpack 0 f f f f;
#X connect 0 0 14 0;
#X connect 1 0 2 0;
#X connect 1 0 4 0;
#X connect 2 0 3 0;
#X connect 3 0 0 0;
#X connect 4 0 6 0;
#X connect 5 0 8 0;
#X connect 6 0 7 0;
#X connect 7 0 5 0;
#X connect 8 0 0 0;
#X connect 9 0 11 0;
#X connect 10 0 9 0;
#X connect 11 0 0 0;
#X connect 12 0 1 0;
#X connect 13 0 10 0;
#X connect 19 0 2 1;
#X connect 19 0 4 1;
#X connect 20 0 7 1;
#X connect 21 0 5 1;
#X connect 22 0 9 1;
#X connect 23 0 24 0;
#X connect 24 1 19 0;
#X connect 24 2 20 0;
#X connect 24 3 21 0;
#X connect 24 4 22 0;
#X coords 0 -1 1 1 120 100 2 100 100;
#X restore 310 493 pd adsr;
#X obj 253 417 *~;
#X obj 400 444 delay;
#N canvas 32 32 450 250 (subpatch) 0;
#X array tempo 16 float 3;
#A 0 360 0 0 0 60 0 120 0 120 0 60 0 120 0 60 60;
#X coords 0 1250 16 0 200 140 1 0 0;
#X restore 839 13 graph;
#X obj 305 253 tabread tempo;
#X obj 258 332 osc~;
#X obj 168 333 phasor~;
#X obj 210 377 +~;
#X obj 263 87 inlet;
#X obj 352 408 select 0;
#X msg 491 475 \; tempo 0 180 0 0 60 120 0 60 60 60 60 120 0 0 60 120
0;
#X msg 500 288 \; melody 0 50 50 50 50 50 50 53 50 48 45 53 53 0 53
48 48;
#X msg 495 386 \; tempo 0 360 0 0 0 60 0 120 0 120 0 60 0 120 0 60
60;
#X msg 494 433 \; tempo 0 120 0 60 0 60 0 60 200 0 0 140 0 140 0 140
0;
#X obj 422 170 pack 0 30 30 0.5 120;
#X msg 493 520 \; tempo 0 300 0 0 60 60 0 60 0 180 0 200 0 200 0 200
0;
#X floatatom 333 360 5 0 0 0 - - - 0;
#X obj 229 480 outlet~;
#X obj 201 402 /~ 7;
#X obj 258 356 *~ 5;
#X obj 168 357 *~ 2;
#X connect 0 0 1 0;
#X connect 1 0 21 0;
#X connect 1 0 20 0;
#X connect 3 0 0 0;
#X connect 4 0 3 0;
#X connect 4 0 19 0;
#X connect 5 0 6 0;
#X connect 6 0 7 0;
#X connect 7 0 5 1;
#X connect 7 0 10 0;
#X connect 7 0 11 0;
#X connect 9 0 8 0;
#X connect 9 0 27 0;
#X connect 9 1 13 0;
#X connect 9 1 28 0;
#X connect 9 2 26 0;
#X connect 9 2 25 0;
#X connect 9 3 12 0;
#X connect 9 3 30 0;
#X connect 10 0 9 0;
#X connect 11 0 4 0;
#X connect 14 0 5 0;
#X connect 15 0 16 1;
#X connect 16 0 32 0;
#X connect 17 0 15 2;
#X connect 19 0 31 0;
#X connect 20 0 34 0;
#X connect 21 0 35 0;
#X connect 22 0 33 0;
#X connect 23 0 14 0;
#X connect 23 0 29 0;
#X connect 24 1 17 0;
#X connect 24 1 17 1;
#X connect 24 1 15 1;
#X connect 29 0 15 0;
#X connect 31 0 24 0;
#X connect 33 0 16 0;
#X connect 34 0 22 1;
#X connect 35 0 22 0;
#X restore 167 106 pd melody;
#N canvas 389 345 750 539 beats 0;
#N canvas 909 98 949 770 sound 0;
#N canvas 855 100 798 657 bassdrum 0;
#X obj 57 106 *~;
#X obj 98 92 line~;
#X msg 123 64 1 \, 0 100;
#X obj 123 32 bng 15 250 50 0 empty bd empty 17 7 0 10 #fcfcfc #000000
#000000;
#X obj 58 161 throw~ aux;
#X obj 58 54 osc~ 100;
#X connect 0 0 4 0;
#X connect 1 0 0 1;
#X connect 2 0 1 0;
#X connect 3 0 2 0;
#X connect 5 0 0 0;
#X restore 46 43 pd bassdrum;
#N canvas 781 144 947 768 snare 0;
#X obj 129 150 *~;
#X obj 171 119 line~;
#X msg 204 77 1 \, 0 120;
#X obj 274 78 noise~;
#X obj 275 155 *~;
#X obj 205 32 bng 15 250 50 0 empty sn empty 17 7 0 10 #fcfcfc #000000
#000000;
#X obj 129 77 osc~ 150;
#X obj 130 269 throw~ aux;
#X obj 255 194 *~ 0.4;
#X connect 0 0 7 0;
#X connect 1 0 0 1;
#X connect 1 0 4 1;
#X connect 2 0 1 0;
#X connect 3 0 4 0;
#X connect 4 0 8 0;
#X connect 5 0 2 0;
#X connect 6 0 0 0;
#X connect 8 0 7 0;
#X restore 55 87 pd snare;
#N canvas 992 362 644 504 hihat 0;
#X obj 75 38 noise~;
#X obj 78 108 *~;
#X obj 118 102 line~;
#X msg 143 70 1 \, 0 40;
#X obj 142 37 bng 15 250 50 0 empty hh empty 17 7 0 10 #fcfcfc #000000
#000000;
#X obj 76 181 throw~ aux;
#X connect 0 0 1 0;
#X connect 1 0 5 0;
#X connect 2 0 1 1;
#X connect 3 0 2 0;
#X connect 4 0 3 0;
#X restore 50 124 pd hihat;
#N canvas 160 160 450 300 tom1 0;
#X obj 57 106 *~;
#X obj 98 92 line~;
#X msg 123 64 1 \, 0 100;
#X obj 123 32 bng 15 250 50 0 empty tom1 empty 17 7 0 10 #fcfcfc #000000
#000000;
#X obj 58 54 osc~ 180;
#X obj 58 161 throw~ aux;
#X connect 0 0 5 0;
#X connect 1 0 0 1;
#X connect 2 0 1 0;
#X connect 3 0 2 0;
#X connect 4 0 0 0;
#X restore 53 162 pd tom1;
#N canvas 160 160 450 300 tom2 0;
#X obj 57 106 *~;
#X obj 98 92 line~;
#X msg 123 64 1 \, 0 100;
#X obj 123 32 bng 15 250 50 0 empty tom2 empty 17 7 0 10 #fcfcfc #000000
#000000;
#X obj 58 161 throw~ aux;
#X obj 58 54 osc~ 240;
#X connect 0 0 4 0;
#X connect 1 0 0 1;
#X connect 2 0 1 0;
#X connect 3 0 2 0;
#X connect 5 0 0 0;
#X restore 55 203 pd tom2;
#X restore 42 24 pd sound;
#X obj 46 119 int;
#X obj 114 112 + 1;
#X obj 114 137 % 64;
#X obj 173 176 / 16;
#X obj 46 177 % 16;
#X obj 46 95 metro 120;
#X obj 46 63 inlet;
#X obj 196 210 select 0 1 2 3;
#X obj 46 211 tabread beat;
#N canvas 0 50 450 250 (subpatch) 0;
#X array beat 16 float 3;
#A 0 15 0 0 0 16 0 15 0 15 0 15 0 16 0 10 10;
#X coords 0 1 16 -1 200 140 1;
#X restore 347 287 graph;
#X obj 14 329 bng 15 250 50 0 bd empty empty 17 7 0 10 #fcfcfc #000000
#000000;
#X obj 53 325 bng 15 250 50 0 sn empty empty 17 7 0 10 #fcfcfc #000000
#000000;
#X obj 103 323 bng 15 250 50 0 hh empty empty 17 7 0 10 #fcfcfc #000000
#000000;
#X obj 167 317 bng 15 250 50 0 tom1 empty empty 17 7 0 10 #fcfcfc #000000
#000000;
#X obj 241 322 bng 15 250 50 0 tom2 empty empty 17 7 0 10 #fcfcfc #000000
#000000;
#X obj 14 259 % 2;
#X obj 12 289 sel 1;
#X obj 57 289 sel 1;
#X obj 56 260 % 3;
#X obj 102 292 sel 1;
#X obj 102 261 % 5;
#X obj 151 273 sel 30;
#X obj 215 274 sel 60;
#X msg 355 56 \; beat 0 15 0 0 0 16 0 15 0 15 0 15 0 16 0 10 10;
#X msg 356 108 \; beat 0 15 0 15 0 16 0 25 10 0 25 10 0 16 0 15 0;
#X msg 349 211 \; beat 0 15 0 10 0 16 0 10 0 15 0 16 0 15 0 16 0;
#X msg 351 157 \; beat 0 15 0 6 0 16 0 25 10 0 25 10 0 60 60 30 30
;
#X connect 1 0 2 0;
#X connect 2 0 3 0;
#X connect 3 0 1 1;
#X connect 3 0 4 0;
#X connect 3 0 5 0;
#X connect 4 0 8 0;
#X connect 5 0 9 0;
#X connect 6 0 1 0;
#X connect 7 0 6 0;
#X connect 8 0 24 0;
#X connect 8 1 25 0;
#X connect 8 2 27 0;
#X connect 8 3 26 0;
#X connect 9 0 16 0;
#X connect 9 0 19 0;
#X connect 9 0 21 0;
#X connect 9 0 22 0;
#X connect 9 0 23 0;
#X connect 16 0 17 0;
#X connect 17 0 11 0;
#X connect 18 0 12 0;
#X connect 19 0 18 0;
#X connect 20 0 13 0;
#X connect 21 0 20 0;
#X connect 22 0 14 0;
#X connect 23 0 15 0;
#X restore 88 109 pd beats;
#X obj 127 233 dac~;
#X obj 80 142 catch~ aux;
#X obj 103 181 *~ 0.3;
#X obj 189 181 *~ 0.4;
#X connect 0 0 1 0;
#X connect 0 0 2 0;
#X connect 1 0 6 0;
#X connect 4 0 5 0;
#X connect 5 0 3 0;
#X connect 5 0 3 1;
#X connect 6 0 3 0;
#X connect 6 0 3 1;
